<?xml version="1.0" encoding="UTF-8"?>
<svg id="Layer_2" data-name="Layer 2" xmlns="http://www.w3.org/2000/svg" xmlns:xlink="http://www.w3.org/1999/xlink" viewBox="0 0 2253.84 581.71">
  <defs>
    <style>
      .cls-1 {
        fill: #f2d259;
      }

      .cls-2 {
        fill: url(#linear-gradient-2);
      }

      .cls-3 {
        fill: #3a0000;
      }

      .cls-4 {
        fill: #fff;
      }

      .cls-5 {
        fill: #75625e;
      }

      .cls-6 {
        fill: #e8da31;
      }

      .cls-7 {
        fill: #c83030;
        filter: url(#drop-shadow-1);
      }

      .cls-7, .cls-8, .cls-9 {
        font-family: Goldman-Bold, Goldman;
      }

      .cls-7, .cls-9 {
        font-size: 206.7px;
      }

      .cls-10 {
        fill: #4c4c4c;
      }

      .cls-8 {
        filter: url(#drop-shadow-3);
        font-size: 185.07px;
      }

      .cls-8, .cls-11, .cls-9 {
        fill: #e6e6e6;
      }

      .cls-12 {
        fill: #2c0301;
      }

      .cls-13 {
        fill: #50db4d;
      }

      .cls-14 {
        fill: #76a7e7;
      }

      .cls-15 {
        fill: #79e580;
      }

      .cls-16 {
        fill: #700000;
      }

      .cls-17 {
        fill: #a3d4f7;
      }

      .cls-18 {
        fill: url(#linear-gradient-6);
      }

      .cls-19 {
        fill: #866d66;
      }

      .cls-20 {
        fill: #020000;
      }

      .cls-21 {
        fill: #1d4fad;
      }

      .cls-22 {
        fill: #266a23;
      }

      .cls-23 {
        fill: #6c0000;
      }

      .cls-24 {
        fill: #122f72;
      }

      .cls-25 {
        fill: #1b428f;
      }

      .cls-26 {
        fill: #e68e24;
      }

      .cls-27 {
        fill: #d14800;
      }

      .cls-28 {
        letter-spacing: -.03em;
      }

      .cls-29 {
        fill: #190000;
      }

      .cls-30 {
        fill: #9adca5;
      }

      .cls-31 {
        fill: #9abde8;
      }

      .cls-32 {
        fill: #c4bb47;
      }

      .cls-33 {
        fill: #255cc7;
      }

      .cls-34 {
        fill: #5388da;
      }

      .cls-35 {
        fill: #7ac3f5;
      }

      .cls-36 {
        fill: #444;
      }

      .cls-37 {
        fill: #c60e17;
      }

      .cls-38 {
        fill: #280101;
      }

      .cls-39 {
        fill: #acefb7;
      }

      .cls-40 {
        fill: #4867aa;
      }

      .cls-41 {
        fill: #eaeaea;
      }

      .cls-42 {
        fill: #1d0000;
      }

      .cls-43 {
        letter-spacing: -.1em;
      }

      .cls-44 {
        fill: #a0eca9;
      }

      .cls-45 {
        fill: #2b2b2b;
      }

      .cls-46 {
        fill: #e5e5e5;
      }

      .cls-47 {
        fill: #46a3f1;
      }

      .cls-48 {
        fill: url(#linear-gradient-5);
      }

      .cls-49 {
        fill: #6195e3;
      }

      .cls-50 {
        fill: #967e78;
      }

      .cls-51 {
        fill: #67dd6b;
      }

      .cls-52 {
        fill: #e2bb17;
      }

      .cls-53 {
        fill: #0c265f;
      }

      .cls-54 {
        fill: #236221;
      }

      .cls-55 {
        fill: #387bdd;
      }

      .cls-11 {
        filter: url(#drop-shadow-4);
      }

      .cls-56 {
        fill: #316cd9;
      }

      .cls-57 {
        fill: #2b1501;
      }

      .cls-58 {
        fill: #1a387f;
      }

      .cls-59 {
        fill: #3aa33c;
      }

      .cls-60 {
        fill: #0f2251;
      }

      .cls-61 {
        fill: #1b49a8;
      }

      .cls-62 {
        fill: #8be994;
      }

      .cls-63 {
        fill: #383838;
      }

      .cls-9 {
        filter: url(#drop-shadow-2);
      }

      .cls-64 {
        fill: #2b7629;
      }

      .cls-65 {
        fill: #225cb2;
      }

      .cls-66 {
        fill: #f7f7f7;
      }

      .cls-67 {
        fill: #1b501a;
      }

      .cls-68 {
        fill: #47c244;
      }

      .cls-69 {
        fill: #e0bf58;
      }

      .cls-70 {
        fill: #545454;
      }

      .cls-71 {
        fill: url(#linear-gradient-3);
      }

      .cls-72 {
        fill: #5d0000;
      }

      .cls-73 {
        fill: url(#linear-gradient);
      }

      .cls-74 {
        fill: #776461;
      }

      .cls-75 {
        fill: #db8528;
      }

      .cls-76 {
        fill: url(#linear-gradient-4);
      }

      .cls-77 {
        fill: #d5090a;
      }

      .cls-78 {
        fill: #0c1e49;
      }
    </style>
    <linearGradient id="linear-gradient" x1="58.94" y1="374.04" x2="100.59" y2="374.04" gradientUnits="userSpaceOnUse">
      <stop offset="0" stop-color="#700000"/>
      <stop offset="1" stop-color="#d14800"/>
    </linearGradient>
    <linearGradient id="linear-gradient-2" x1="73.31" y1="437.51" x2="122.54" y2="437.51" xlink:href="#linear-gradient"/>
    <linearGradient id="linear-gradient-3" x1="73.31" y1="371.59" x2="122.54" y2="371.59" xlink:href="#linear-gradient"/>
    <linearGradient id="linear-gradient-4" x1="71.76" y1="400.15" x2="125.2" y2="400.15" xlink:href="#linear-gradient"/>
    <linearGradient id="linear-gradient-5" x1="96.42" y1="422.51" x2="122.93" y2="422.51" xlink:href="#linear-gradient"/>
    <linearGradient id="linear-gradient-6" x1="151.51" y1="-341.71" x2="163.8" y2="-341.71" gradientTransform="translate(-158.05 673.21) rotate(17.19)" gradientUnits="userSpaceOnUse">
      <stop offset="0" stop-color="#a62800"/>
      <stop offset="1" stop-color="#a72900"/>
    </linearGradient>
    <filter id="drop-shadow-1" filterUnits="userSpaceOnUse">
      <feOffset dx="7" dy="7"/>
      <feGaussianBlur result="blur" stdDeviation="5"/>
      <feFlood flood-color="#000" flood-opacity=".75"/>
      <feComposite in2="blur" operator="in"/>
      <feComposite in="SourceGraphic"/>
    </filter>
    <filter id="drop-shadow-2" filterUnits="userSpaceOnUse">
      <feOffset dx="7" dy="7"/>
      <feGaussianBlur result="blur-2" stdDeviation="5"/>
      <feFlood flood-color="#000" flood-opacity=".75"/>
      <feComposite in2="blur-2" operator="in"/>
      <feComposite in="SourceGraphic"/>
    </filter>
    <filter id="drop-shadow-3" filterUnits="userSpaceOnUse">
      <feOffset dx="7" dy="7"/>
      <feGaussianBlur result="blur-3" stdDeviation="5"/>
      <feFlood flood-color="#000" flood-opacity=".75"/>
      <feComposite in2="blur-3" operator="in"/>
      <feComposite in="SourceGraphic"/>
    </filter>
    <filter id="drop-shadow-4" filterUnits="userSpaceOnUse">
      <feOffset dx="7" dy="7"/>
      <feGaussianBlur result="blur-4" stdDeviation="5"/>
      <feFlood flood-color="#000" flood-opacity=".75"/>
      <feComposite in2="blur-4" operator="in"/>
      <feComposite in="SourceGraphic"/>
    </filter>
  </defs>
  <g id="Layer_1-2" data-name="Layer 1">
    <path class="cls-30" d="M254.83,259.87l42.44,23.64,42.41-23.67-42.4-23.59c-14.15,7.87-28.3,15.74-42.45,23.61Z"/>
    <path class="cls-30" d="M297.21,236.24l42.44,23.64,42.41-23.67-42.4-23.59c-14.15,7.87-28.3,15.74-42.45,23.61Z"/>
    <path class="cls-44" d="M339.66,212.64l42.44,23.64,42.41-23.67-42.4-23.59c-14.15,7.87-28.3,15.74-42.45,23.61Z"/>
    <path class="cls-39" d="M382.08,188.94l42.44,23.64,42.41-23.67-42.4-23.59c-14.15,7.87-28.3,15.74-42.45,23.61Z"/>
    <path class="cls-17" d="M424.4,165.28l42.44,23.64,42.41-23.67-42.4-23.59c-14.15,7.87-28.3,15.74-42.45,23.61Z"/>
    <path class="cls-31" d="M466.82,141.64l42.44,23.64,42.41-23.67-42.4-23.59c-14.15,7.87-28.3,15.74-42.45,23.61Z"/>
    <path class="cls-44" d="M212.51,236.24l42.44,23.64,42.41-23.67-42.4-23.59c-14.15,7.87-28.3,15.74-42.45,23.61Z"/>
    <path class="cls-44" d="M254.88,212.61l42.44,23.64,42.41-23.67-42.4-23.59c-14.15,7.87-28.3,15.74-42.45,23.61Z"/>
    <path class="cls-44" d="M297.33,189.01l42.44,23.64,42.41-23.67-42.4-23.59c-14.15,7.87-28.3,15.74-42.45,23.61Z"/>
    <path class="cls-17" d="M339.75,165.31l42.44,23.64,42.41-23.67-42.4-23.59c-14.15,7.87-28.3,15.74-42.45,23.61Z"/>
    <path class="cls-31" d="M382.07,141.66l42.44,23.64,42.41-23.67-42.4-23.59c-14.15,7.87-28.3,15.74-42.45,23.61Z"/>
    <path class="cls-31" d="M424.5,118.02l42.44,23.64,42.41-23.67-42.4-23.59c-14.15,7.87-28.3,15.74-42.45,23.61Z"/>
    <path class="cls-15" d="M169.99,212.64l42.44,23.64,42.41-23.67-42.4-23.59c-14.15,7.87-28.3,15.74-42.45,23.61Z"/>
    <path class="cls-62" d="M212.37,189.01l42.44,23.64,42.41-23.67-42.4-23.59c-14.15,7.87-28.3,15.74-42.45,23.61Z"/>
    <path class="cls-62" d="M254.81,165.4l42.44,23.64,42.41-23.67c-14.13-7.86-28.27-15.73-42.4-23.59-14.15,7.87-28.3,15.74-42.45,23.61Z"/>
    <path class="cls-62" d="M297.24,141.71l42.44,23.64,42.41-23.67-42.4-23.59c-14.15,7.87-28.3,15.74-42.45,23.61Z"/>
    <path class="cls-14" d="M339.56,118.05l42.44,23.64,42.41-23.67-42.4-23.59c-14.15,7.87-28.3,15.74-42.45,23.61Z"/>
    <path class="cls-14" d="M381.98,94.41l42.44,23.64,42.41-23.67-42.4-23.59c-14.15,7.87-28.3,15.74-42.45,23.61Z"/>
    <path class="cls-15" d="M127.57,188.94l42.44,23.64,42.41-23.67-42.4-23.59c-14.15,7.87-28.3,15.74-42.45,23.61Z"/>
    <path class="cls-49" d="M169.94,165.31l42.44,23.64,42.41-23.67-42.4-23.59c-14.15,7.87-28.3,15.74-42.45,23.61Z"/>
    <path class="cls-15" d="M212.39,141.71l42.44,23.64,42.41-23.67-42.4-23.59c-14.15,7.87-28.3,15.74-42.45,23.61Z"/>
    <path class="cls-35" d="M254.81,118.02l42.44,23.64,42.41-23.67c-14.13-7.86-28.27-15.73-42.4-23.59-14.15,7.87-28.3,15.74-42.45,23.61Z"/>
    <path class="cls-14" d="M297.13,94.36l42.44,23.64,42.41-23.67-42.4-23.59c-14.15,7.87-28.3,15.74-42.45,23.61Z"/>
    <path class="cls-34" d="M339.56,70.72l42.44,23.64,42.41-23.67-42.4-23.59c-14.15,7.87-28.3,15.74-42.45,23.61Z"/>
    <path class="cls-40" d="M85.13,165.35l42.44,23.64,42.41-23.67-42.4-23.59c-14.15,7.87-28.3,15.74-42.45,23.61Z"/>
    <path class="cls-49" d="M127.51,141.72l42.44,23.64,42.41-23.67-42.4-23.59c-14.15,7.87-28.3,15.74-42.45,23.61Z"/>
    <path class="cls-51" d="M169.95,118.12l42.44,23.64,42.41-23.67-42.4-23.59c-14.15,7.87-28.3,15.74-42.45,23.61Z"/>
    <path class="cls-51" d="M212.38,94.43l42.44,23.64,42.41-23.67-42.4-23.59c-14.15,7.87-28.3,15.74-42.45,23.61Z"/>
    <path class="cls-47" d="M254.69,70.77l42.44,23.64,42.41-23.67c-14.13-7.86-28.27-15.73-42.4-23.59-14.15,7.87-28.3,15.74-42.45,23.61Z"/>
    <path class="cls-34" d="M297.12,47.13l42.44,23.64,42.41-23.67-42.4-23.59c-14.15,7.87-28.3,15.74-42.45,23.61Z"/>
    <path class="cls-40" d="M42.69,141.84l42.44,23.64,42.41-23.67-42.4-23.59c-14.15,7.87-28.3,15.74-42.45,23.61Z"/>
    <path class="cls-34" d="M85.06,118.21l42.44,23.64,42.41-23.67-42.4-23.59c-14.15,7.87-28.3,15.74-42.45,23.61Z"/>
    <path class="cls-51" d="M127.51,94.6l42.44,23.64,42.41-23.67-42.4-23.59c-14.15,7.87-28.3,15.74-42.45,23.61Z"/>
    <path class="cls-13" d="M169.93,70.91l42.44,23.64,42.41-23.67-42.4-23.59c-14.15,7.87-28.3,15.74-42.45,23.61Z"/>
    <path class="cls-51" d="M212.25,47.25l42.44,23.64,42.41-23.67c-14.13-7.86-28.27-15.73-42.4-23.59-14.15,7.87-28.3,15.74-42.45,23.61Z"/>
    <path class="cls-34" d="M254.68,23.61l42.44,23.64,42.41-23.67L297.13,0c-14.15,7.87-28.3,15.74-42.45,23.61Z"/>
    <polygon class="cls-54" points="254.78 259.92 297.23 283.54 297.23 332.35 254.78 308.73 254.78 259.92"/>
    <polygon class="cls-22" points="212.34 236.28 254.78 259.9 254.78 308.71 212.34 285.09 212.34 236.28"/>
    <polygon class="cls-54" points="169.9 212.65 212.34 236.27 212.34 285.08 169.9 261.46 169.9 212.65"/>
    <polygon class="cls-64" points="127.45 189.01 169.9 212.62 169.9 261.43 127.45 237.82 127.45 189.01"/>
    <polygon class="cls-58" points="85.15 165.48 127.6 189.1 127.6 237.91 85.15 214.29 85.15 165.48"/>
    <polygon class="cls-60" points="42.71 141.84 85.15 165.45 85.15 214.27 42.71 190.65 42.71 141.84"/>
    <polygon class="cls-64" points="254.77 308.71 297.22 332.33 297.22 381.14 254.77 357.52 254.77 308.71"/>
    <polygon class="cls-67" points="212.33 285.07 254.77 308.68 254.77 357.49 212.33 333.88 212.33 285.07"/>
    <polygon class="cls-22" points="169.89 261.44 212.33 285.06 212.33 333.87 169.89 310.25 169.89 261.44"/>
    <polygon class="cls-64" points="127.44 237.79 169.89 261.41 169.89 310.22 127.44 286.61 127.44 237.79"/>
    <polygon class="cls-58" points="85.14 214.27 127.59 237.89 127.59 286.7 85.14 263.08 85.14 214.27"/>
    <polygon class="cls-78" points="42.7 190.63 85.14 214.24 85.14 263.05 42.7 239.44 42.7 190.63"/>
    <polygon class="cls-24" points="254.72 355.93 297.16 379.55 297.16 428.36 254.72 404.74 254.72 355.93"/>
    <polygon class="cls-64" points="212.27 332.28 254.72 355.9 254.72 404.71 212.27 381.1 212.27 332.28"/>
    <polygon class="cls-64" points="169.83 308.66 212.27 332.27 212.27 381.08 169.83 357.47 169.83 308.66"/>
    <polygon class="cls-25" points="127.38 285.01 169.83 308.63 169.83 357.44 127.38 333.82 127.38 285.01"/>
    <polygon class="cls-38" points="85.08 261.49 127.53 285.1 127.53 333.92 85.08 310.3 85.08 261.49"/>
    <polygon points="42.64 237.84 85.08 261.46 85.08 310.27 42.64 286.66 42.64 237.84"/>
    <polygon class="cls-53" points="254.71 404.72 297.15 428.33 297.15 477.14 254.71 453.53 254.71 404.72"/>
    <polygon class="cls-64" points="212.26 381.07 254.71 404.69 254.71 453.5 212.26 429.88 212.26 381.07"/>
    <polygon class="cls-58" points="169.82 357.44 212.26 381.06 212.26 429.87 169.82 406.26 169.82 357.44"/>
    <polygon class="cls-57" points="127.37 333.8 169.82 357.42 169.82 406.23 127.37 382.61 127.37 333.8"/>
    <polygon class="cls-42" points="85.07 310.28 127.52 333.89 127.52 382.7 85.07 359.09 85.07 310.28"/>
    <polygon class="cls-3" points="42.63 286.63 85.07 310.25 85.07 359.06 42.63 335.44 42.63 286.63"/>
    <polygon class="cls-60" points="254.72 453.47 297.16 477.09 297.16 525.9 254.72 502.28 254.72 453.47"/>
    <polygon class="cls-64" points="212.27 429.83 254.72 453.44 254.72 502.25 212.27 478.64 212.27 429.83"/>
    <polygon class="cls-12" points="169.83 406.2 212.27 429.82 212.27 478.63 169.83 455.01 169.83 406.2"/>
    <polygon class="cls-72" points="127.38 382.55 169.83 406.17 169.83 454.98 127.38 431.37 127.38 382.55"/>
    <polygon class="cls-27" points="85.08 359.03 127.53 382.65 127.53 431.46 85.08 407.84 85.08 359.03"/>
    <polygon class="cls-3" points="42.64 335.39 85.08 359 85.08 407.81 42.64 384.2 42.64 335.39"/>
    <polygon class="cls-60" points="254.71 502.26 297.15 525.88 297.15 574.69 254.71 551.07 254.71 502.26"/>
    <polygon class="cls-58" points="212.26 478.61 254.71 502.23 254.71 551.04 212.26 527.43 212.26 478.61"/>
    <polygon class="cls-72" points="169.82 454.99 212.26 478.6 212.26 527.41 169.82 503.8 169.82 454.99"/>
    <polygon points="127.37 431.34 169.82 454.96 169.82 503.77 127.37 480.15 127.37 431.34"/>
    <polygon class="cls-29" points="85.07 407.82 127.52 431.44 127.52 480.25 85.07 456.63 85.07 407.82"/>
    <polygon class="cls-20" points="42.63 384.17 85.07 407.79 85.07 456.6 42.63 432.99 42.63 384.17"/>
    <polygon class="cls-68" points="339.64 259.9 297.19 283.52 297.19 332.33 339.64 308.71 339.64 259.9"/>
    <polygon class="cls-68" points="382.08 236.26 339.64 259.87 339.64 308.68 382.08 285.07 382.08 236.26"/>
    <polygon class="cls-59" points="424.53 212.63 382.08 236.24 382.08 285.05 424.53 261.44 424.53 212.63"/>
    <polygon class="cls-68" points="466.97 188.98 424.53 212.6 424.53 261.41 466.97 237.79 466.97 188.98"/>
    <polygon class="cls-13" points="509.27 165.46 466.82 189.08 466.82 237.89 509.27 214.27 509.27 165.46"/>
    <polygon class="cls-56" points="551.71 141.81 509.27 165.43 509.27 214.24 551.71 190.63 551.71 141.81"/>
    <polygon class="cls-68" points="339.65 308.69 297.2 332.3 297.2 381.12 339.65 357.5 339.65 308.69"/>
    <polygon class="cls-68" points="382.09 285.04 339.65 308.66 339.65 357.47 382.09 333.85 382.09 285.04"/>
    <polygon class="cls-68" points="424.54 261.42 382.09 285.03 382.09 333.84 424.54 310.23 424.54 261.42"/>
    <polygon class="cls-13" points="466.98 237.77 424.54 261.39 424.54 310.2 466.98 286.58 466.98 237.77"/>
    <polygon class="cls-55" points="509.28 214.25 466.83 237.86 466.83 286.67 509.28 263.06 509.28 214.25"/>
    <polygon class="cls-21" points="551.72 190.6 509.28 214.22 509.28 263.03 551.72 239.41 551.72 190.6"/>
    <polygon class="cls-47" points="339.7 355.91 297.26 379.52 297.26 428.33 339.7 404.72 339.7 355.91"/>
    <polygon class="cls-68" points="382.15 332.26 339.7 355.88 339.7 404.69 382.15 381.07 382.15 332.26"/>
    <polygon class="cls-68" points="424.59 308.63 382.15 332.25 382.15 381.06 424.59 357.44 424.59 308.63"/>
    <polygon class="cls-47" points="467.04 284.99 424.59 308.61 424.59 357.42 467.04 333.8 467.04 284.99"/>
    <polygon class="cls-33" points="509.34 261.47 466.89 285.08 466.89 333.89 509.34 310.28 509.34 261.47"/>
    <polygon class="cls-65" points="551.78 237.82 509.34 261.44 509.34 310.25 551.78 286.63 551.78 237.82"/>
    <polygon class="cls-21" points="339.72 404.69 297.27 428.31 297.27 477.12 339.72 453.5 339.72 404.69"/>
    <polygon class="cls-56" points="382.16 381.05 339.72 404.67 339.72 453.48 382.16 429.86 382.16 381.05"/>
    <polygon class="cls-56" points="424.6 357.42 382.16 381.04 382.16 429.85 424.6 406.23 424.6 357.42"/>
    <polygon class="cls-25" points="467.05 333.78 424.6 357.39 424.6 406.2 467.05 382.59 467.05 333.78"/>
    <polygon class="cls-33" points="509.35 310.25 466.9 333.87 466.9 382.68 509.35 359.06 509.35 310.25"/>
    <polygon class="cls-56" points="551.79 286.61 509.35 310.23 509.35 359.04 551.79 335.42 551.79 286.61"/>
    <polygon class="cls-25" points="339.7 453.45 297.26 477.06 297.26 525.88 339.7 502.26 339.7 453.45"/>
    <polygon class="cls-61" points="382.15 429.8 339.7 453.42 339.7 502.23 382.15 478.61 382.15 429.8"/>
    <polygon class="cls-33" points="424.59 406.18 382.15 429.79 382.15 478.6 424.59 454.99 424.59 406.18"/>
    <polygon class="cls-56" points="467.04 382.53 424.59 406.15 424.59 454.96 467.04 431.34 467.04 382.53"/>
    <polygon class="cls-13" points="509.34 359.01 466.89 382.62 466.89 431.44 509.34 407.82 509.34 359.01"/>
    <polygon class="cls-68" points="551.78 335.36 509.34 358.98 509.34 407.79 551.78 384.17 551.78 335.36"/>
    <polygon class="cls-25" points="339.72 502.24 297.27 525.85 297.27 574.66 339.72 551.05 339.72 502.24"/>
    <polygon class="cls-25" points="382.16 478.59 339.72 502.21 339.72 551.02 382.16 527.4 382.16 478.59"/>
    <polygon class="cls-33" points="424.6 454.96 382.16 478.58 382.16 527.39 424.6 503.77 424.6 454.96"/>
    <polygon class="cls-47" points="467.05 431.32 424.6 454.94 424.6 503.75 467.05 480.13 467.05 431.32"/>
    <polygon class="cls-56" points="509.35 407.8 466.9 431.41 466.9 480.22 509.35 456.61 509.35 407.8"/>
    <polygon class="cls-59" points="551.79 384.15 509.35 407.77 509.35 456.58 551.79 432.96 551.79 384.15"/>
    <path class="cls-73" d="M100.03,389.48c-16.62-1.85-27.57-6.91-33.94-10.64-4.03-2.36-6.89-4.57-7.13-7.58-.36-4.45,5.11-9.34,13.8-12.67-1.47,.63-3.99,1.98-5.92,4.67-.69,.96-1.71,2.42-2,4.58-.14,1.05-.34,2.57,.33,3.83,.62,1.15,1.98,2.12,12,3.25,4.07,.46,4.84,.41,7.17,.92,2.72,.59,4.69,1.31,6.8,2.09,2.46,.91,5.71,2.25,9.44,4.21-.19,2.44-.37,4.89-.56,7.33Z"/>
    <path class="cls-16" d="M50.66,393.06l36.18,3.67,22.13-28.84c-12.04-1.21-24.09-2.43-36.13-3.64-7.39,9.6-14.78,19.21-22.17,28.81Z"/>
    <polygon class="cls-3" points="50.66 393.08 86.83 396.73 101.3 430.27 65.13 426.62 50.66 393.08"/>
    <polygon class="cls-23" points="108.99 367.92 86.83 396.73 101.3 430.27 123.46 401.46 108.99 367.92"/>
    <path class="cls-2" d="M121.98,420.39c-6.41,.94-14.22,3.29-19.22,9.62-5.2,6.59-3.67,12.84-9.01,17.94-3.23,3.09-9.07,5.83-20.45,4.51,.89,.46,2.19,1.06,3.84,1.51,4.37,1.19,8,.52,10.61,0,4.32-.86,7.9-1.56,10.87-4.46,1.96-1.9,3.12-4.24,5.08-8.15,1.57-3.15,1.74-4.25,3.27-5.85,1.47-1.53,2.87-2.14,6.11-3.57,1.83-.81,4.99-2.21,9.44-4.21-.19-2.44-.37-4.89-.56-7.33Z"/>
    <path class="cls-71" d="M121.98,388.72c-10.43-1.79-16.01-5.93-19.22-9.62-5.59-6.43-4.76-12.42-10.45-17.48-5.49-4.88-13.12-5.39-19-4.97,.89-.46,2.19-1.06,3.84-1.51,4.71-1.29,8.66-.44,10.61,0,1.85,.42,6.25,1.47,10.22,5.03,3.09,2.76,4.97,6.18,5.73,7.58,1.59,2.94,1.59,4.09,3.27,5.85,1.47,1.53,2.87,2.14,6.11,3.57,1.83,.81,4.99,2.21,9.44,4.21-.19,2.44-.37,4.89-.56,7.33Z"/>
    <path class="cls-76" d="M124.65,416.21c-5.69-.94-13.56-3.22-19.22-9.62-5.37-6.07-4.88-11.46-9.9-15.19-3.62-2.69-10.3-4.67-23.78,0,.99-1.34,2.9-3.56,6-5.22,4.47-2.39,8.68-2.15,10.78-2,1.57,.11,5.38,.55,9.45,2.88,1.18,.67,5.51,3.21,8.39,8.2,1.57,2.72,1.41,3.9,3.27,5.85,1.47,1.53,2.87,2.14,6.11,3.57,1.83,.81,4.99,2.21,9.44,4.21-.19,2.44-.37,4.89-.56,7.33Z"/>
    <path class="cls-48" d="M122.54,409.95c-2.24,.2-11.92,1.33-19.22,9.62-5.37,6.1-6.57,12.81-6.9,15.5,1.09-2.25,2.74-5.09,5.22-7.97,4.8-5.56,10.06-8.23,12.22-9.22,3.57-1.64,6.79-2.38,9.06-2.75-.13-1.73-.26-3.45-.39-5.18Z"/>
    <path class="cls-18" d="M100.12,392.36c-1.23-.46-4.27-1.41-7.97-.56-2.53,.58-4.33,1.77-5.32,2.54,1.44-.59,4.29-1.51,7.86-1.08,2.08,.25,3.75,.89,4.89,1.45,.18-.78,.36-1.56,.54-2.35Z"/>
    <polygon class="cls-45" points="271.51 88.68 284.63 92.26 286.4 102.82 273.28 99.25 271.51 88.68"/>
    <polygon class="cls-10" points="296.04 85.61 284.63 92.26 286.4 102.82 297.81 96.17 296.04 85.61"/>
    <polygon class="cls-45" points="269.74 78.09 282.86 81.67 284.63 92.24 271.51 88.66 269.74 78.09"/>
    <polygon class="cls-10" points="294.27 75.02 282.86 81.67 284.63 92.24 296.03 85.59 294.27 75.02"/>
    <polygon class="cls-45" points="267.98 67.58 281.1 71.16 282.87 81.72 269.75 78.15 267.98 67.58"/>
    <polygon class="cls-10" points="292.51 64.51 281.1 71.16 282.87 81.72 294.27 75.07 292.51 64.51"/>
    <polygon class="cls-45" points="264.88 30.34 274.72 33.02 276.04 40.95 266.2 38.27 264.88 30.34"/>
    <polygon class="cls-10" points="283.27 28.04 274.72 33.02 276.04 40.95 284.6 35.96 283.27 28.04"/>
    <polygon class="cls-5" points="263.56 22.46 273.4 25.14 274.72 33.07 264.88 30.38 263.56 22.46"/>
    <polygon class="cls-19" points="281.95 20.15 273.4 25.14 274.72 33.07 283.28 28.08 281.95 20.15"/>
    <polygon class="cls-45" points="269.56 106.28 287.81 111.25 290.27 125.95 272.02 120.98 269.56 106.28"/>
    <polygon class="cls-10" points="303.67 102 287.81 111.25 290.27 125.95 306.13 116.7 303.67 102"/>
    <polygon class="cls-45" points="266.19 38.19 276.03 40.87 277.36 48.8 267.52 46.12 266.19 38.19"/>
    <polygon class="cls-10" points="284.59 35.88 276.03 40.87 277.36 48.8 285.91 43.81 284.59 35.88"/>
    <polygon class="cls-45" points="267.5 46.04 277.34 48.72 278.67 56.65 268.83 53.97 267.5 46.04"/>
    <polygon class="cls-10" points="285.9 43.74 277.34 48.72 278.67 56.65 287.23 51.66 285.9 43.74"/>
    <polygon class="cls-45" points="268.82 53.9 278.66 56.58 279.98 64.5 270.15 61.82 268.82 53.9"/>
    <polygon class="cls-10" points="287.21 51.59 278.66 56.58 279.98 64.5 288.54 59.51 287.21 51.59"/>
    <polygon class="cls-74" points="263.56 22.46 264.97 13.3 271.72 15.14 273.4 25.14 263.56 22.46"/>
    <polygon class="cls-50" points="273.4 25.14 271.72 15.14 277.6 11.72 281.95 20.15 273.4 25.14"/>
    <polygon class="cls-63" points="267.98 67.58 270.15 61.82 279.98 64.5 281.1 71.16 267.98 67.58"/>
    <polygon class="cls-70" points="288.54 59.51 292.51 64.51 281.1 71.16 279.98 64.5 288.54 59.51"/>
    <polygon class="cls-45" points="302.24 105.73 300.8 106.62 302.57 117.19 304.01 116.29 302.24 105.73"/>
    <polygon class="cls-70" points="297.81 96.17 303.67 102 287.81 111.25 286.4 102.82 297.81 96.17"/>
    <polygon class="cls-63" points="273.28 99.25 269.56 106.28 287.81 111.25 286.4 102.82 273.28 99.25"/>
    <polygon class="cls-63" points="295.76 106.54 302.82 114.62 304.17 122.7 297.75 118.63 295.76 106.54"/>
    <polygon class="cls-70" points="295.76 106.54 297.87 105.31 304.91 113.37 302.82 114.62 295.76 106.54"/>
    <polygon class="cls-10" points="302.82 114.62 304.91 113.37 306.26 121.45 304.17 122.7 302.82 114.62"/>
    <path class="cls-63" d="M288.99,96.14c3.64,4.77,7.4,10.52,11.04,15.29l-10.26-10.52c-.26-1.59-.52-3.18-.78-4.76Z"/>
    <polygon class="cls-70" points="288.99 96.14 290.83 94.67 302.21 110.28 299.98 111.36 288.99 96.14"/>
    <polygon class="cls-36" points="277.96 108.01 273.85 117.49 275.2 125.57 280.02 120.09 277.96 108.01"/>
    <polygon class="cls-63" points="277.96 108.01 275.54 107.35 271.43 116.81 273.85 117.49 277.96 108.01"/>
    <polygon class="cls-45" points="273.85 117.49 271.43 116.81 272.79 124.89 275.2 125.57 273.85 117.49"/>
    <path class="cls-36" d="M281.05,96.38c-1.93,5.47-3.65,11.9-5.58,17.37l6.39-12.61c-.27-1.59-.54-3.17-.81-4.76Z"/>
    <polygon class="cls-63" points="281.05 96.38 278.8 95.41 273.01 113.18 275.5 113.67 281.05 96.38"/>
    <polygon class="cls-45" points="287.4 73.61 285.96 74.51 287.72 85.08 289.16 84.18 287.4 73.61"/>
    <polygon class="cls-45" points="290.78 71.86 289.34 72.76 291.11 83.33 292.55 82.43 290.78 71.86"/>
    <polygon class="cls-45" points="293.45 83.13 287.72 86.31 288.06 88.31 293.78 85.12 293.45 83.13"/>
    <polygon class="cls-45" points="280.48 34.64 279.04 35.54 280.81 46.11 282.25 45.21 280.48 34.64"/>
    <polygon class="cls-45" points="282.78 47.21 281.34 48.11 283.11 58.68 284.55 57.78 282.78 47.21"/>
    <polygon class="cls-45" points="293.62 110.81 292.18 111.71 293.95 122.27 295.39 121.37 293.62 110.81"/>
    <polygon class="cls-1" points="281.8 123.64 282.35 126.94 292.48 139.18 298.28 126.32 297.64 121.65 290.27 125.95 281.8 123.64"/>
    <polygon class="cls-26" points="282.35 126.94 293.53 145.46 298.28 126.32 292.48 139.18 282.35 126.94"/>
    <polygon class="cls-77" points="282.9 127.85 296.57 164.03 298.11 127 293.53 145.46 282.9 127.85"/>
    <polygon class="cls-69" points="282.35 126.94 281.8 123.64 290.27 125.95 292.48 139.18 282.35 126.94"/>
    <polygon class="cls-75" points="293.53 145.46 282.35 126.94 292.48 139.18 293.53 145.46"/>
    <polygon class="cls-37" points="293.53 145.46 296.57 164.03 282.9 127.85 293.53 145.46"/>
    <ellipse class="cls-46" cx="280.18" cy="201.82" rx="11.92" ry="8.96" transform="translate(-13.65 20.44) rotate(-4.08)"/>
    <ellipse class="cls-66" cx="272.39" cy="196" rx="6.73" ry="5.06" transform="translate(-13.25 19.87) rotate(-4.08)"/>
    <ellipse class="cls-4" cx="280.09" cy="190.82" rx="6.73" ry="5.06" transform="translate(-12.87 20.41) rotate(-4.08)"/>
    <ellipse class="cls-4" cx="287.59" cy="194.98" rx="4.42" ry="3.32" transform="translate(-13.14 20.95) rotate(-4.08)"/>
    <ellipse class="cls-46" cx="293.32" cy="202.47" rx="8.89" ry="6.68" transform="translate(-13.66 21.38) rotate(-4.08)"/>
    <ellipse class="cls-4" cx="268.46" cy="188.27" rx="7.59" ry="5.7" transform="translate(-12.71 19.58) rotate(-4.08)"/>
    <ellipse class="cls-4" cx="273.18" cy="205.95" rx="8.22" ry="9.34" transform="translate(62.24 475.31) rotate(-88.95)"/>
    <ellipse class="cls-46" cx="333.16" cy="193.87" rx="11.92" ry="8.96" transform="translate(-12.95 24.19) rotate(-4.08)"/>
    <ellipse class="cls-46" cx="338.71" cy="186.37" rx="6.73" ry="5.06" transform="translate(-12.4 24.57) rotate(-4.08)"/>
    <ellipse class="cls-66" cx="329.63" cy="183.29" rx="6.73" ry="5.06" transform="translate(-12.2 23.91) rotate(-4.08)"/>
    <ellipse class="cls-4" cx="323.8" cy="189.13" rx="4.42" ry="3.32" transform="translate(-12.63 23.51) rotate(-4.08)"/>
    <ellipse class="cls-4" cx="320.77" cy="197.72" rx="8.89" ry="6.68" transform="translate(-13.25 23.32) rotate(-4.08)"/>
    <ellipse class="cls-4" cx="339.94" cy="178" rx="7.59" ry="5.7" transform="translate(-11.8 24.63) rotate(-4.08)"/>
    <ellipse class="cls-66" cx="341.22" cy="196.11" rx="8.22" ry="9.34" transform="translate(138.87 533.67) rotate(-88.95)"/>
    <ellipse class="cls-4" cx="301.27" cy="196.17" rx="4.42" ry="3.32" transform="translate(-13.19 21.93) rotate(-4.08)"/>
    <ellipse class="cls-66" cx="306.42" cy="202.52" rx="8.33" ry="5.01" transform="translate(-18.94 32.07) rotate(-5.81)"/>
    <ellipse class="cls-46" cx="311.1" cy="196.64" rx="2.73" ry="2.05" transform="translate(-13.2 22.63) rotate(-4.08)"/>
    <ellipse class="cls-4" cx="321.73" cy="178.42" rx="2.33" ry="1.75" transform="translate(-11.88 23.34) rotate(-4.08)"/>
    <ellipse class="cls-4" cx="317.03" cy="175.4" rx="1.17" ry=".88" transform="translate(-11.68 23) rotate(-4.08)"/>
    <ellipse class="cls-4" cx="277.6" cy="181.37" rx="1.17" ry=".88" transform="translate(-12.2 20.21) rotate(-4.08)"/>
    <ellipse class="cls-46" cx="281.03" cy="182.79" rx="1.76" ry="1.32" transform="translate(-12.29 20.46) rotate(-4.08)"/>
    <ellipse class="cls-66" cx="284.73" cy="181.34" rx="1.17" ry=".88" transform="translate(-12.18 20.72) rotate(-4.08)"/>
    <ellipse class="cls-4" cx="258.84" cy="196.39" rx="1.17" ry=".88" transform="translate(-13.32 18.91) rotate(-4.08)"/>
    <ellipse class="cls-66" cx="263.22" cy="181.86" rx="5.91" ry="4.44" transform="translate(-12.27 19.19) rotate(-4.08)"/>
    <ellipse class="cls-41" cx="331.91" cy="171.48" rx="5.91" ry="4.44" transform="translate(-11.36 24.05) rotate(-4.08)"/>
    <ellipse class="cls-4" cx="285.74" cy="157.37" rx="4.54" ry="3.41" transform="translate(-10.47 20.73) rotate(-4.08)"/>
    <ellipse class="cls-4" cx="303.45" cy="162.94" rx="4.54" ry="3.41" transform="translate(-10.82 22) rotate(-4.08)"/>
    <ellipse class="cls-46" cx="300.28" cy="165.88" rx="2.26" ry="1.69" transform="translate(-11.04 21.78) rotate(-4.08)"/>
    <ellipse class="cls-66" cx="305.22" cy="167.25" rx="4.06" ry="3.05" transform="translate(-11.13 22.14) rotate(-4.08)"/>
    <ellipse class="cls-4" cx="308.62" cy="161.92" rx="2" ry="1.5" transform="translate(-10.74 22.37) rotate(-4.08)"/>
    <ellipse class="cls-4" cx="285.74" cy="160.79" rx="2" ry="1.5" transform="translate(-10.71 20.74) rotate(-4.08)"/>
    <ellipse class="cls-4" cx="297.14" cy="175.42" rx="2.19" ry="1.65" transform="translate(-11.73 21.58) rotate(-4.08)"/>
    <polygon class="cls-45" points="60.11 212.56 45.91 212.49 41.94 221.79 56.14 221.85 60.11 212.56"/>
    <polygon class="cls-10" points="35.56 203.42 45.91 212.49 41.94 221.79 31.59 212.72 35.56 203.42"/>
    <polygon class="cls-45" points="64.09 203.24 49.9 203.17 45.92 212.47 60.12 212.54 64.09 203.24"/>
    <polygon class="cls-10" points="39.54 194.11 49.9 203.17 45.92 212.47 35.57 203.41 39.54 194.11"/>
    <polygon class="cls-45" points="68.05 193.99 53.85 193.92 49.87 203.22 64.07 203.29 68.05 193.99"/>
    <polygon class="cls-10" points="43.5 184.86 53.85 193.92 49.87 203.22 39.52 194.16 43.5 184.86"/>
    <polygon class="cls-45" points="78.85 160.41 68.2 160.36 65.22 167.34 75.86 167.39 78.85 160.41"/>
    <polygon class="cls-10" points="60.43 153.56 68.2 160.36 65.22 167.34 57.45 160.54 60.43 153.56"/>
    <polygon class="cls-5" points="81.81 153.47 71.16 153.42 68.18 160.4 78.83 160.45 81.81 153.47"/>
    <polygon class="cls-19" points="63.4 146.62 71.16 153.42 68.18 160.4 60.42 153.6 63.4 146.62"/>
    <polygon class="cls-32" points="84.28 139.87 76.97 139.84 74.92 144.63 82.23 144.66 84.28 139.87"/>
    <polygon class="cls-6" points="71.64 135.17 76.97 139.84 74.92 144.63 69.59 139.96 71.64 135.17"/>
    <polygon class="cls-32" points="86.31 135.12 79 135.09 76.96 139.87 84.27 139.91 86.31 135.12"/>
    <polygon class="cls-6" points="73.67 130.42 79 135.09 76.96 139.87 71.63 135.21 73.67 130.42"/>
    <polygon class="cls-45" points="58.51 229.3 38.77 229.21 33.24 242.14 52.98 242.23 58.51 229.3"/>
    <polygon class="cls-10" points="24.37 216.6 38.77 229.21 33.24 242.14 18.84 229.53 24.37 216.6"/>
    <polygon class="cls-45" points="75.89 167.32 65.24 167.27 62.26 174.24 72.91 174.29 75.89 167.32"/>
    <polygon class="cls-10" points="57.48 160.47 65.24 167.27 62.26 174.24 54.5 167.44 57.48 160.47"/>
    <polygon class="cls-45" points="72.94 174.23 62.29 174.18 59.31 181.15 69.96 181.2 72.94 174.23"/>
    <polygon class="cls-10" points="54.53 167.38 62.29 174.18 59.31 181.15 51.54 174.35 54.53 167.38"/>
    <polygon class="cls-45" points="69.98 181.14 59.34 181.09 56.35 188.06 67 188.11 69.98 181.14"/>
    <polygon class="cls-10" points="51.57 174.29 59.34 181.09 56.35 188.06 48.59 181.26 51.57 174.29"/>
    <polygon class="cls-74" points="81.81 153.47 82.23 144.66 74.92 144.63 71.16 153.42 81.81 153.47"/>
    <polygon class="cls-50" points="71.16 153.42 74.92 144.63 69.59 139.96 63.4 146.62 71.16 153.42"/>
    <path class="cls-52" d="M86.33,135.12l-7.34-.03-5.34-4.69c2.44,.01,4.89,.02,7.33,.03,1.78,1.56,3.57,3.12,5.35,4.68Z"/>
    <polygon class="cls-63" points="68.05 193.99 67 188.11 56.35 188.06 53.85 193.92 68.05 193.99"/>
    <polygon class="cls-70" points="48.59 181.26 43.5 184.86 53.85 193.92 56.35 188.06 48.59 181.26"/>
    <polygon class="cls-45" points="25.08 220.4 26.37 221.6 22.4 230.9 21.1 229.7 25.08 220.4"/>
    <polygon class="cls-70" points="31.59 212.72 24.37 216.6 38.77 229.21 41.94 221.79 31.59 212.72"/>
    <polygon class="cls-63" points="56.14 221.85 58.51 229.3 38.77 229.21 41.94 221.79 56.14 221.85"/>
    <polygon class="cls-63" points="31.57 222.82 22.67 228.46 19.63 235.58 27.05 233.46 31.57 222.82"/>
    <polygon class="cls-70" points="31.57 222.82 29.65 221.14 20.78 226.78 22.67 228.46 31.57 222.82"/>
    <polygon class="cls-10" points="22.67 228.46 20.78 226.78 17.74 233.89 19.63 235.58 22.67 228.46"/>
    <path class="cls-63" d="M40.64,214.96c-4.71,3.47-9.75,7.81-14.46,11.28l12.68-7.08c.59-1.4,1.19-2.8,1.78-4.2Z"/>
    <polygon class="cls-70" points="40.64 214.96 39.05 213.12 24.18 224.62 26.25 226.19 40.64 214.96"/>
    <polygon class="cls-36" points="49.53 228.74 51.83 238.55 48.78 245.66 44.96 239.36 49.53 228.74"/>
    <polygon class="cls-63" points="49.53 228.74 52.16 228.75 54.44 238.54 51.83 238.55 49.53 228.74"/>
    <polygon class="cls-45" points="51.83 238.55 54.44 238.54 51.4 245.65 48.78 245.66 51.83 238.55"/>
    <path class="cls-36" d="M48.75,217.21c.86,5.54,1.31,11.92,2.17,17.46l-3.98-13.28c.6-1.4,1.2-2.79,1.8-4.19Z"/>
    <polygon class="cls-63" points="48.75 217.21 51.25 216.9 53.57 234.78 50.91 234.6 48.75 217.21"/>
    <polygon class="cls-45" points="46.88 194.57 48.18 195.77 44.2 205.07 42.91 203.87 46.88 194.57"/>
    <polygon class="cls-45" points="43.76 192.09 45.06 193.29 41.08 202.59 39.79 201.39 43.76 192.09"/>
    <polygon class="cls-45" points="38.72 201.8 43.95 206.21 43.2 207.97 37.97 203.56 38.72 201.8"/>
    <polygon class="cls-45" points="61.95 160.37 63.25 161.57 59.27 170.87 57.98 169.67 61.95 160.37"/>
    <polygon class="cls-45" points="57.02 171.39 58.31 172.59 54.34 181.89 53.04 180.69 57.02 171.39"/>
    <polygon class="cls-45" points="32.89 227.31 34.18 228.5 30.21 237.8 28.91 236.6 32.89 227.31"/>
    <polygon class="cls-1" points="42.41 242.18 41.16 245.09 28.26 253.79 24.94 240.43 26.55 236.29 33.24 242.14 42.41 242.18"/>
    <polygon class="cls-26" points="41.16 245.09 25.89 259.31 24.94 240.43 28.26 253.79 41.16 245.09"/>
    <polygon class="cls-77" points="40.41 245.79 18.98 275.67 24.97 241.1 25.89 259.31 40.41 245.79"/>
    <ellipse class="cls-46" cx="18.97" cy="256.24" rx="4.54" ry="3.41" transform="translate(-18.18 2) rotate(-4.08)"/>
    <ellipse class="cls-66" cx="16.8" cy="261.81" rx="4.01" ry="3.33" transform="translate(-18.58 1.86) rotate(-4.08)"/>
    <ellipse class="cls-4" cx="21.84" cy="266.83" rx="4.54" ry="3.77" transform="translate(-18.93 2.23) rotate(-4.08)"/>
    <ellipse class="cls-4" cx="10.54" cy="281.24" rx="4.54" ry="3.77" transform="translate(-19.98 1.46) rotate(-4.08)"/>
    <ellipse class="cls-46" cx="10.67" cy="285.93" rx="3.53" ry="2.93" transform="translate(-20.31 1.48) rotate(-4.08)"/>
    <ellipse class="cls-4" cx="4.54" cy="286.63" rx="4.54" ry="3.77" transform="translate(-20.38 1.05) rotate(-4.08)"/>
    <ellipse class="cls-4" cx="21.19" cy="280.04" rx="2.95" ry="2.44" transform="translate(-19.87 2.22) rotate(-4.08)"/>
    <ellipse class="cls-46" cx="28.91" cy="311" rx="4.54" ry="3.77" transform="translate(-22.05 2.84) rotate(-4.08)"/>
    <ellipse class="cls-66" cx="22.08" cy="305.76" rx="3.86" ry="3.2" transform="translate(-21.7 2.35) rotate(-4.08)"/>
    <ellipse class="cls-4" cx="28.68" cy="307.06" rx="5.44" ry="4.51" transform="translate(-21.77 2.82) rotate(-4.08)"/>
    <ellipse class="cls-46" cx="8.96" cy="331.92" rx="3.77" ry="4.54" transform="translate(-94.96 16.56) rotate(-16.69)"/>
    <ellipse class="cls-66" cx="12.59" cy="324.11" rx="3.2" ry="3.86" transform="translate(-92.57 17.27) rotate(-16.69)"/>
    <ellipse class="cls-4" cx="12.76" cy="330.84" rx="4.51" ry="5.44" transform="translate(-94.49 17.61) rotate(-16.69)"/>
    <ellipse class="cls-4" cx="4.54" cy="308.66" rx="2.95" ry="2.44" transform="translate(-21.95 1.1) rotate(-4.08)"/>
    <text class="cls-7" transform="translate(643.14 280.85)"><tspan x="0" y="0">NEW</tspan></text>
    <text class="cls-9" transform="translate(678.27 418.84)"><tspan class="cls-28" x="0" y="0">A</tspan><tspan x="171.77" y="0">GE</tspan></text>
    <text class="cls-8" transform="translate(1270.21 346.85)"><tspan x="0" y="0">N</tspan><tspan class="cls-43" x="160.64" y="0">A</tspan><tspan x="301.48" y="0">TIONS</tspan></text>
    <rect class="cls-11" x="1285.01" y="357.6" width="933.94" height="11"/>
  </g>
</svg>